<svg xmlns="http://www.w3.org/2000/svg" width="346.667" height="346.667" preserveAspectRatio="xMidYMid meet" version="1.0" viewBox="0 0 260 260"><metadata>Created by potrace 1.14, written by Peter Selinger 2001-2017</metadata><g fill="#000" stroke="none"><path d="M400 2366 c-6 -6 -10 -7 -10 -3 0 4 -6 2 -14 -5 -8 -7 -12 -16 -9 -20 2 -5 -1 -8 -6 -8 -6 0 -11 6 -11 13 0 7 -3 8 -8 2 -4 -6 -18 -16 -32 -23 -14 -7 -16 -10 -6 -7 16 5 17 3 6 -10 -7 -8 -16 -12 -21 -9 -8 5 -13 -10 -10 -29 1 -5 -3 -6 -9 -2 -5 3 -10 1 -10 -5 0 -6 -4 -9 -9 -6 -11 7 -33 -53 -24 -67 4 -6 1 -7 -7 -2 -10 6 -12 4 -7 -8 3 -10 2 -17 -3 -17 -5 0 -6 -7 -3 -17 4 -10 2 -14 -4 -10 -6 4 -9 -14 -8 -48 1 -41 -2 -55 -12 -55 -8 0 -11 -5 -8 -10 4 -6 9 -8 13 -6 4 2 7 -9 7 -24 0 -15 -3 -26 -7 -23 -5 2 -8 -3 -8 -12 0 -9 4 -14 8 -11 4 2 8 -6 8 -19 0 -16 -4 -21 -15 -17 -12 4 -11 0 3 -16 13 -15 15 -22 6 -22 -10 0 -10 -3 0 -15 11 -13 10 -14 -4 -9 -12 5 -15 2 -10 -10 3 -9 9 -14 13 -12 3 2 6 -15 6 -39 0 -33 -3 -41 -15 -37 -11 4 -10 -1 4 -16 13 -15 15 -22 6 -22 -10 0 -10 -3 0 -15 11 -13 10 -14 -4 -9 -12 5 -15 2 -10 -10 3 -9 11 -13 18 -9 6 4 4 -2 -4 -12 -9 -11 -10 -16 -2 -11 6 4 12 2 12 -3 0 -6 -7 -11 -16 -11 -8 0 -12 -5 -9 -10 4 -6 10 -8 15 -5 5 3 5 -8 0 -25 -5 -19 -5 -28 1 -25 5 4 9 1 9 -4 0 -6 -7 -11 -16 -11 -8 0 -12 -5 -9 -10 4 -6 9 -8 13 -6 4 2 7 -16 7 -40 0 -35 -3 -43 -15 -39 -9 3 -7 -1 4 -10 11 -8 15 -15 8 -15 -6 0 -9 -7 -5 -17 4 -11 3 -14 -5 -9 -8 5 -10 2 -6 -8 3 -9 9 -14 13 -12 4 3 7 -6 7 -19 0 -16 -4 -21 -15 -17 -12 4 -11 0 3 -16 13 -15 15 -22 6 -22 -10 0 -10 -3 0 -15 11 -13 10 -14 -4 -9 -12 5 -15 2 -10 -10 3 -9 9 -14 13 -12 4 3 7 -6 7 -19 0 -16 -4 -21 -14 -17 -11 4 -9 -3 4 -24 11 -15 14 -25 8 -21 -7 4 -14 0 -17 -8 -4 -9 -1 -12 9 -8 7 3 14 0 14 -6 0 -6 -7 -11 -16 -11 -8 0 -12 -5 -9 -10 4 -6 10 -8 15 -5 5 3 5 -8 0 -25 -5 -19 -5 -28 1 -25 5 4 9 1 9 -4 0 -6 -7 -11 -16 -11 -8 0 -12 -5 -9 -10 4 -6 9 -8 13 -6 4 2 7 -9 7 -24 0 -15 -3 -26 -7 -23 -5 2 -8 -3 -8 -12 0 -9 4 -14 8 -11 4 2 8 -6 8 -19 0 -16 -4 -21 -16 -17 -11 4 -10 0 4 -16 13 -15 15 -22 6 -22 -10 0 -10 -3 0 -15 11 -13 10 -14 -4 -9 -12 5 -15 2 -10 -10 3 -9 9 -14 13 -12 3 2 6 -15 6 -39 0 -33 -3 -41 -15 -37 -11 4 -10 -1 4 -16 13 -15 15 -22 6 -22 -10 0 -10 -3 0 -15 11 -13 10 -14 -4 -9 -12 5 -15 2 -10 -10 3 -9 11 -13 18 -9 6 4 4 -2 -4 -12 -9 -11 -10 -16 -2 -11 6 4 12 2 12 -3 0 -6 -7 -11 -16 -11 -8 0 -12 -5 -9 -10 4 -6 10 -8 15 -5 5 3 5 -8 0 -25 -5 -19 -5 -28 1 -25 5 4 9 1 9 -4 0 -6 -7 -11 -16 -11 -8 0 -12 -5 -9 -10 4 -6 9 -8 13 -6 4 2 7 -16 7 -40 0 -34 -3 -43 -14 -39 -10 4 -8 -2 5 -16 10 -12 13 -19 7 -15 -7 4 -13 2 -13 -3 0 -6 6 -11 13 -11 8 0 7 -4 -3 -10 -12 -8 -12 -10 5 -11 11 0 14 -3 7 -6 -18 -7 -15 -31 10 -66 17 -24 19 -29 5 -24 -11 4 -14 2 -10 -9 3 -7 9 -14 14 -14 5 0 9 -7 9 -16 0 -19 25 -46 34 -36 4 3 4 -2 0 -13 -6 -15 -4 -17 10 -12 10 4 15 3 11 -3 -3 -6 1 -13 9 -16 9 -3 16 -12 16 -19 0 -8 8 -12 20 -10 12 2 20 -2 20 -10 0 -9 6 -12 15 -9 8 4 15 2 15 -4 0 -5 6 -10 13 -9 32 1 48 -4 42 -13 -9 -14 8 -13 23 2 9 9 12 9 12 -1 0 -7 4 -9 10 -6 5 3 10 0 10 -7 0 -10 2 -10 9 1 7 11 9 11 14 0 4 -10 6 -10 6 -2 1 9 8 10 26 3 18 -7 25 -6 25 3 0 8 3 8 9 -2 7 -10 10 -10 13 -1 3 9 9 8 21 -4 16 -16 17 -16 17 0 0 13 3 14 15 4 12 -10 15 -10 15 1 0 8 6 5 15 -7 13 -16 14 -16 9 -1 -5 13 -2 16 10 11 22 -8 136 -11 136 -3 0 4 18 3 40 -1 27 -5 40 -4 41 4 0 6 4 2 9 -9 6 -13 9 -15 9 -5 1 12 15 15 65 15 35 0 62 -3 59 -7 -2 -5 1 -8 6 -8 6 0 11 5 11 10 0 7 6 7 20 0 15 -8 20 -8 20 1 0 8 4 8 15 -1 12 -10 15 -10 15 1 0 8 6 5 15 -7 13 -16 14 -16 9 -1 -5 13 -2 16 10 11 27 -10 136 -10 136 1 0 6 5 3 10 -5 6 -9 10 -10 10 -3 0 8 9 9 30 3 19 -5 30 -5 30 1 0 6 5 7 10 4 6 -4 8 -12 4 -18 -3 -7 2 -3 10 7 9 11 16 15 16 10 0 -6 21 -8 54 -4 30 3 52 2 50 -2 -3 -4 0 -8 5 -8 6 0 11 5 11 10 0 7 6 7 20 0 15 -8 20 -8 20 1 0 8 4 8 15 -1 12 -10 15 -10 15 1 0 8 6 5 15 -7 13 -16 14 -16 9 -1 -5 13 -2 16 10 11 22 -8 136 -11 136 -3 0 4 18 3 40 -1 27 -5 40 -4 40 4 0 6 5 4 10 -4 5 -8 10 -10 10 -5 0 6 28 10 64 10 35 0 62 -3 59 -7 -2 -5 1 -8 6 -8 6 0 11 5 11 10 0 7 6 7 20 0 15 -8 20 -8 20 2 0 9 3 9 10 -2 8 -12 10 -12 10 -1 0 11 3 11 17 0 13 -11 15 -11 9 -1 -6 10 -3 13 10 12 31 -4 45 0 40 8 -3 5 1 9 8 9 8 0 12 -7 9 -16 -3 -9 2 -6 11 6 10 14 23 19 36 16 13 -4 20 0 20 9 0 10 8 14 25 13 14 -2 23 1 20 5 -3 5 4 14 15 20 14 7 19 17 16 27 -5 13 -4 14 9 3 13 -10 15 -9 15 7 0 11 11 32 24 46 15 17 20 28 13 31 -9 3 -9 5 0 5 7 1 10 8 6 18 -5 12 -3 14 8 8 11 -7 11 -5 -1 10 -14 17 -13 18 4 12 15 -6 17 -5 8 6 -7 8 -9 17 -5 20 3 4 0 13 -7 22 -11 13 -10 15 1 10 11 -4 14 8 16 55 1 44 -2 58 -10 53 -8 -5 -8 -2 0 8 10 12 10 18 0 29 -9 10 -9 11 1 6 15 -9 15 -5 2 28 -7 20 -6 27 8 35 9 6 12 11 6 11 -7 0 -15 7 -18 16 -3 8 -2 12 4 9 14 -9 12 8 -2 24 -7 8 -8 11 -3 8 13 -6 13 132 1 152 -6 9 -5 12 2 7 8 -5 9 7 5 40 -3 29 -2 44 4 41 5 -3 10 0 10 8 0 8 -4 12 -8 9 -4 -2 -7 17 -5 43 1 27 -2 56 -7 67 -6 13 -6 16 2 12 12 -8 11 21 -2 41 -4 6 -4 14 1 17 9 6 9 67 -1 83 -4 6 -3 15 3 18 8 5 7 12 -2 23 -10 12 -10 14 0 8 15 -9 15 -1 1 26 -8 15 -8 19 0 14 15 -10 14 7 -1 23 -11 11 -10 12 0 7 9 -6 11 -1 8 18 -3 14 -8 31 -12 37 -4 8 -3 9 4 5 13 -8 12 20 -1 41 -4 6 -4 14 1 17 9 5 9 67 -1 83 -4 6 -1 13 5 16 10 3 9 8 -2 22 -8 10 -10 16 -4 12 8 -5 11 9 8 49 -3 39 0 53 8 48 7 -5 8 -3 3 7 -12 18 -12 149 -1 149 6 0 2 6 -8 13 -16 12 -16 14 -2 26 9 7 13 18 9 25 -4 6 -8 34 -10 61 -4 104 -6 125 -15 125 -4 0 -8 5 -8 11 0 5 4 8 9 4 5 -3 13 -1 16 5 4 6 1 9 -6 8 -6 -2 -14 3 -17 11 -3 9 0 11 8 6 8 -5 7 1 -3 16 -8 13 -14 34 -13 46 2 17 0 20 -10 12 -8 -7 -14 -6 -20 2 -4 8 -3 9 4 5 23 -14 12 6 -18 34 -20 19 -26 30 -18 33 7 3 3 6 -9 6 -13 1 -23 6 -23 11 0 6 -8 10 -17 8 -11 -2 -18 3 -17 13 1 11 -6 16 -20 14 -11 0 -27 3 -34 9 -19 14 -52 18 -52 7 0 -6 10 -8 21 -6 12 3 19 1 15 -2 -12 -13 -35 -11 -47 3 -14 16 -33 19 -23 3 5 -8 1 -8 -14 0 -26 14 -35 14 -26 0 5 -8 1 -8 -14 0 -27 14 -35 14 -26 -1 6 -10 4 -10 -7 0 -19 17 -29 15 -23 -5 5 -17 5 -17 -6 0 -12 19 -35 24 -24 5 6 -10 4 -10 -7 0 -15 14 -33 16 -24 3 3 -5 1 -13 -5 -16 -6 -4 -9 -1 -8 7 2 9 -10 13 -39 14 -24 0 -40 -3 -36 -9 3 -5 -4 -4 -15 2 -25 13 -35 14 -27 2 3 -5 0 -13 -6 -17 -7 -4 -9 -3 -6 3 4 6 0 14 -9 17 -23 9 -26 8 -18 -6 6 -10 4 -10 -7 0 -16 15 -33 16 -24 1 4 -6 -2 -5 -13 2 -17 10 -23 10 -37 -1 -10 -8 -19 -10 -23 -4 -4 5 -16 11 -26 12 -18 3 -18 2 -6 -15 14 -17 14 -17 -6 0 -24 20 -38 22 -28 5 6 -10 4 -10 -7 0 -20 18 -33 15 -18 -5 13 -17 13 -17 -7 0 -22 18 -39 23 -29 8 3 -5 0 -13 -6 -17 -8 -4 -9 -3 -5 5 12 19 -21 23 -51 6 -23 -14 -25 -14 -9 -1 17 14 17 16 4 16 -9 0 -20 -4 -23 -10 -3 -5 -14 -10 -23 -9 -14 0 -13 2 3 9 15 6 9 8 -22 7 -23 -1 -39 -5 -36 -10 3 -5 -4 -4 -15 2 -25 13 -35 14 -27 2 3 -5 0 -13 -6 -17 -7 -4 -9 -3 -6 3 4 6 0 14 -9 17 -22 8 -26 8 -19 -3 6 -10 -17 -8 -49 5 -15 6 -17 4 -11 -7 6 -11 5 -12 -6 -1 -19 17 -29 15 -23 -5 5 -17 5 -17 -6 0 -12 19 -35 24 -24 5 6 -10 4 -10 -7 0 -15 14 -33 16 -24 3 3 -5 1 -13 -5 -16 -6 -4 -9 -1 -8 6 2 6 -3 14 -11 17 -9 3 -11 0 -6 -8 6 -9 3 -9 -13 -1 -27 14 -35 14 -26 -1 6 -10 4 -10 -7 0 -19 17 -29 15 -23 -5 5 -17 5 -17 -6 0 -12 19 -35 24 -24 5 6 -10 4 -10 -7 0 -15 14 -33 16 -24 3 3 -5 1 -13 -5 -16 -6 -4 -9 -1 -8 6 2 6 -3 14 -11 17 -9 3 -11 0 -6 -8 6 -9 3 -9 -13 -1 -26 14 -32 14 -32 0 0 -5 5 -7 12 -3 7 5 8 3 4 -5 -6 -9 -12 -9 -25 3 -21 19 -35 21 -25 4 6 -10 4 -10 -7 0 -19 17 -29 15 -23 -5 5 -17 5 -17 -6 0 -11 16 -36 25 -26 9 3 -5 -1 -9 -9 -9 -8 0 -12 4 -9 9 8 13 -4 10 -32 -8 -19 -13 -24 -14 -22 -4 2 8 -6 15 -17 17 -17 4 -18 2 -5 -7 12 -10 11 -11 -5 -5 -33 12 -106 14 -99 3 4 -6 -3 -5 -15 1 -18 10 -20 9 -15 -6 5 -17 5 -17 -6 0 -14 21 -28 22 -52 0 -10 -9 -18 -11 -18 -5 0 6 6 13 13 15 7 3 6 6 -5 6 -9 1 -20 -3 -23 -9 -3 -5 -12 -10 -18 -10 -8 0 -8 3 1 9 8 5 -2 8 -28 7 -22 0 -45 -5 -50 -10z m60 -2 c0 -8 -19 -13 -24 -6 -3 5 1 9 9 9 8 0 15 -2 15 -3z m1270 -4 c0 -5 -2 -10 -4 -10 -3 0 -8 5 -11 10 -3 6 -1 10 4 10 6 0 11 -4 11 -10z m-615 -395 c28 0 53 5 57 10 5 6 8 6 8 -1 0 -11 48 -10 78 1 7 3 11 1 8 -4 -3 -5 5 -8 19 -8 14 0 22 4 18 10 -4 6 -1 7 7 2 7 -4 27 -8 45 -9 17 0 39 -7 49 -15 15 -12 16 -12 10 5 -7 18 -6 18 16 -1 15 -13 21 -15 16 -5 -6 12 -5 12 6 -1 7 -9 18 -14 24 -12 7 2 18 -3 27 -11 8 -8 17 -12 21 -9 3 4 6 1 6 -6 0 -7 4 -10 9 -6 5 3 12 -4 16 -15 3 -11 13 -20 21 -20 8 0 13 -3 13 -7 -3 -19 2 -34 9 -29 5 3 9 0 10 -7 0 -7 4 -25 8 -42 4 -16 7 -38 8 -47 0 -13 3 -14 13 -6 10 8 12 7 7 -6 -3 -9 -10 -16 -16 -16 -5 0 -6 -5 -3 -10 4 -6 10 -8 14 -6 4 3 8 -1 8 -9 0 -8 -4 -15 -9 -15 -4 0 -8 -5 -8 -11 0 -5 4 -8 8 -5 10 6 9 -24 -1 -41 -4 -6 -3 -14 2 -17 10 -7 9 -25 -2 -43 -4 -6 -1 -14 5 -16 8 -3 6 -6 -4 -6 -10 -1 -18 -6 -18 -12 0 -5 4 -8 8 -5 13 8 7 -33 -6 -46 -7 -7 -12 -20 -12 -29 0 -28 -11 -49 -23 -42 -6 4 -8 0 -5 -8 5 -16 -27 -51 -37 -41 -4 4 -5 -2 -3 -13 2 -11 -2 -19 -9 -18 -19 4 -9 -51 14 -74 12 -12 24 -19 27 -15 3 3 6 -2 6 -11 0 -9 5 -16 12 -14 7 1 12 -4 13 -11 0 -6 12 -27 27 -46 20 -25 24 -36 15 -45 -8 -8 -8 -11 0 -11 12 0 12 -18 -1 -38 -5 -8 -3 -11 5 -10 15 4 19 -20 7 -44 -15 -31 -23 -19 -22 34 0 60 -33 136 -73 168 -13 10 -22 24 -18 29 3 6 0 8 -9 5 -20 -7 -48 37 -40 62 4 10 24 40 44 65 21 25 44 65 51 90 7 24 18 47 24 51 6 5 6 8 0 8 -6 0 -9 45 -7 121 2 66 -1 126 -6 132 -5 7 -13 26 -16 42 -13 59 -71 102 -171 128 -22 5 -124 11 -227 13 -161 3 -186 1 -181 -11 3 -8 0 -15 -6 -15 -6 0 -11 7 -11 15 0 17 36 39 50 30 6 -3 10 0 10 7 0 8 3 9 8 3 4 -5 30 -10 57 -10z m-107 -81 c1 -20 -2 -25 -14 -20 -10 4 -13 2 -8 -7 4 -6 3 -8 -1 -4 -12 10 -15 38 -4 31 5 -3 9 0 9 5 0 6 -5 11 -11 11 -5 0 -8 4 -4 10 10 16 31 0 33 -26z m2 -49 c0 -8 -4 -15 -9 -15 -13 0 -22 16 -14 24 11 11 23 6 23 -9z m365 -30 c49 -21 58 -30 80 -77 31 -65 36 -178 9 -178 -14 0 -14 3 -4 15 7 9 10 18 6 22 -3 3 -6 0 -6 -7 0 -7 -3 -10 -6 -7 -4 4 -1 13 6 22 8 10 9 15 1 15 -6 0 -11 5 -11 11 0 5 6 7 13 3 7 -5 6 0 -3 11 -13 17 -13 18 0 10 12 -6 13 -5 3 6 -7 7 -13 21 -13 30 0 24 -26 70 -34 62 -4 -4 -4 1 0 12 6 15 4 17 -9 12 -12 -4 -17 -1 -17 9 0 10 -6 14 -14 11 -7 -3 -24 2 -37 10 -12 9 -19 11 -15 5 4 -7 2 -12 -3 -12 -6 0 -11 4 -11 10 0 5 -18 9 -40 8 -25 -1 -37 -5 -33 -12 4 -6 -2 -4 -12 4 -17 14 -18 13 -12 -2 4 -12 2 -15 -9 -11 -9 3 -14 -1 -14 -12 0 -9 -4 -13 -10 -10 -6 4 -10 -5 -10 -19 0 -14 -6 -26 -12 -26 -9 0 -9 -3 -2 -8 6 -4 14 -16 17 -26 6 -15 5 -17 -6 -8 -10 9 -14 8 -14 -3 0 -8 5 -15 10 -15 5 0 3 -8 -4 -17 -8 -9 -9 -14 -3 -10 7 4 15 0 18 -9 3 -8 2 -12 -3 -9 -5 3 -12 1 -16 -5 -3 -5 -1 -10 6 -10 8 0 7 -5 -2 -17 -8 -9 -9 -14 -3 -10 7 4 14 -3 16 -18 3 -13 2 -22 -3 -20 -4 3 -10 1 -14 -5 -3 -5 -2 -10 2 -10 5 0 9 -9 10 -20 2 -18 -15 -24 -27 -8 -4 5 -3 220 2 256 1 6 5 12 10 12 4 0 8 6 8 13 0 12 27 34 60 49 32 14 101 7 155 -17z m-381 9 c18 -7 23 -38 5 -32 -6 2 -10 7 -9 12 1 5 -4 13 -12 17 -15 10 -7 12 16 3z m0 -40 c18 -7 23 -38 5 -32 -6 2 -10 7 -9 12 1 5 -4 13 -12 17 -15 10 -7 12 16 3z m0 -40 c18 -7 23 -38 5 -32 -6 2 -10 7 -9 12 1 5 -4 13 -12 17 -15 10 -7 12 16 3z m0 -40 c18 -7 23 -38 5 -32 -6 2 -10 7 -9 12 1 5 -4 13 -12 17 -15 10 -7 12 16 3z m2 -42 c13 -8 15 -202 2 -202 -4 0 -8 -5 -8 -11 0 -5 5 -7 10 -4 6 3 10 -3 10 -15 0 -12 -4 -19 -9 -16 -5 3 -11 -1 -14 -9 -4 -9 -1 -12 7 -9 11 4 14 -19 14 -110 0 -64 -4 -113 -8 -111 -4 3 -10 -2 -13 -10 -4 -8 -1 -12 7 -9 10 4 13 -24 13 -121 0 -69 -3 -125 -7 -125 -15 0 -19 14 -8 27 9 11 7 12 -7 7 -15 -6 -16 -4 -5 15 9 17 9 26 -1 37 -10 12 -9 13 6 8 15 -6 16 -4 7 12 -6 11 -8 32 -5 48 4 18 2 27 -4 23 -5 -3 -10 0 -10 7 0 8 7 12 16 9 11 -3 10 0 -3 11 -11 9 -14 16 -7 16 7 0 9 5 5 12 -10 17 -13 48 -3 43 4 -3 9 2 13 10 3 8 0 17 -6 21 -7 5 -8 2 -3 -6 5 -9 4 -11 -4 -6 -7 5 -9 12 -3 19 15 19 14 89 -1 81 -9 -5 -9 -4 1 7 6 7 12 17 12 22 0 4 -6 5 -12 1 -9 -6 -9 -3 1 9 8 10 10 24 6 34 -5 10 -7 23 -5 28 1 6 4 48 6 95 2 57 0 80 -6 70 -6 -9 -10 -10 -10 -3 0 6 5 15 11 18 13 8 8 67 -6 77 -6 5 -6 8 0 8 6 0 15 -4 21 -8z m484 -141 c0 -47 -17 -81 -65 -127 -48 -45 -93 -59 -165 -51 -19 3 -42 5 -50 6 -36 3 -85 123 -55 135 19 7 31 -14 14 -25 -11 -7 -10 -9 5 -9 18 0 18 -1 3 -12 -13 -10 -14 -17 -6 -28 9 -13 10 -12 5 3 -3 11 -2 16 4 12 6 -3 10 -15 10 -25 0 -10 4 -22 10 -25 6 -4 7 1 4 12 -4 13 -3 14 4 5 5 -7 16 -14 24 -16 9 -1 23 -8 32 -15 10 -9 16 -9 16 -2 0 7 8 8 27 0 15 -6 24 -7 20 -3 -12 12 26 34 40 22 9 -7 13 -7 13 1 0 6 11 16 25 23 13 6 22 15 19 20 -3 5 4 12 15 15 18 5 19 8 9 21 -11 13 -11 14 1 7 11 -6 13 -4 8 9 -4 9 -3 15 2 12 5 -3 12 1 15 10 3 8 2 13 -3 10 -5 -3 -8 5 -7 19 2 36 26 31 26 -4z m-64 -340 c76 -50 89 -85 89 -246 0 -152 -14 -199 -74 -238 -49 -33 -70 -38 -144 -38 -130 0 -149 26 -151 213 -1 92 2 129 11 132 18 7 28 -15 12 -25 -11 -7 -9 -9 6 -10 l20 0 -20 -9 c-11 -5 -14 -9 -6 -9 11 -1 11 -4 1 -16 -7 -9 -8 -15 -2 -15 5 0 13 -7 16 -16 5 -14 4 -15 -8 -5 -12 10 -14 9 -11 -6 1 -10 8 -17 15 -15 6 1 9 -2 5 -8 -3 -6 -12 -7 -18 -3 -7 3 -3 -4 7 -16 14 -15 15 -20 5 -16 -10 4 -15 -1 -15 -15 0 -11 5 -20 11 -20 5 0 3 -5 -5 -10 -13 -9 -13 -10 0 -10 13 0 13 -1 0 -10 -8 -5 -10 -10 -4 -10 7 0 15 -7 18 -16 4 -10 2 -13 -7 -8 -6 3 1 -5 17 -20 16 -14 34 -23 40 -19 7 4 7 2 -1 -8 -10 -12 -8 -15 8 -15 10 0 19 4 19 9 0 5 6 5 13 -1 14 -11 99 -4 107 9 3 5 15 10 25 12 30 4 72 49 70 74 -1 12 2 20 6 18 4 -3 10 2 13 11 4 10 2 13 -6 8 -7 -5 -8 -3 -2 7 13 21 16 51 4 44 -5 -3 -10 -1 -10 4 0 6 5 11 11 11 6 0 7 5 2 13 -11 18 -12 37 -2 37 5 0 9 5 9 11 0 5 -4 7 -10 4 -5 -3 -10 -1 -10 4 0 6 5 11 11 11 8 0 8 4 2 13 -13 16 -13 47 1 47 5 0 1 7 -10 15 -13 10 -14 13 -3 10 10 -4 16 0 16 9 0 8 -4 13 -9 10 -5 -4 -8 2 -6 12 2 13 -2 18 -12 16 -12 -3 -12 -1 -3 9 9 9 8 15 -4 28 -9 9 -20 16 -24 16 -4 0 -11 4 -16 9 -5 5 -2 6 6 1 9 -5 12 -4 7 3 -4 6 -13 9 -21 5 -8 -3 -15 0 -15 6 0 6 -10 11 -21 11 -12 0 -28 8 -36 18 -8 9 -11 11 -7 3 6 -11 3 -13 -12 -7 -35 15 -98 10 -88 -6 4 -6 3 -8 -2 -5 -5 3 -21 -4 -34 -15 -14 -11 -19 -16 -11 -12 9 5 12 3 7 -4 -4 -7 -15 -12 -24 -13 -11 0 -13 -2 -4 -6 10 -4 10 -8 0 -21 -11 -13 -11 -14 1 -7 11 6 13 4 8 -7 -3 -9 0 -21 6 -28 9 -10 9 -11 0 -6 -6 3 -14 2 -18 -4 -3 -5 -2 -10 2 -10 5 0 9 -8 10 -18 2 -19 -26 -27 -28 -8 -6 54 2 120 17 145 24 40 55 51 139 48 61 -2 77 -7 121 -36z m256 -209 c-7 -2 -9 -8 -6 -13 3 -6 0 -16 -6 -24 -10 -12 -9 -15 6 -15 18 -1 18 -1 2 -11 -10 -5 -18 -15 -18 -22 0 -8 3 -7 9 2 6 9 8 4 8 -17 -1 -17 -6 -28 -12 -24 -6 4 -6 0 1 -9 12 -16 13 -59 2 -59 -5 0 -13 0 -20 0 -6 0 -3 7 8 15 11 9 13 13 4 10 -13 -5 -15 5 -14 61 1 43 7 70 15 75 11 7 10 9 -3 9 -10 0 -17 6 -15 13 3 18 18 26 36 19 10 -4 11 -7 3 -10z m-678 -68 c18 -7 23 -38 5 -32 -6 2 -10 7 -9 12 1 5 -4 13 -12 17 -15 10 -7 12 16 3z m2 -42 c15 -10 16 -74 1 -69 -6 2 -11 17 -11 33 0 16 -4 32 -10 36 -7 5 -7 8 -1 8 6 0 15 -4 21 -8z m0 -80 c6 -4 10 -49 10 -115 -1 -60 1 -112 4 -115 8 -11 53 -34 47 -25 -3 4 12 9 34 9 41 1 45 -2 29 -26 -6 -10 -10 -11 -10 -2 0 6 -5 12 -11 12 -5 0 -8 -3 -6 -8 3 -4 -10 -7 -29 -8 -25 -1 -34 4 -34 15 0 9 -3 12 -8 6 -4 -5 -13 -11 -21 -13 -12 -3 -12 0 -2 12 10 12 8 16 -9 21 -16 5 -19 10 -11 18 15 15 14 30 -1 21 -10 -5 -10 -4 -1 6 11 12 9 20 -9 51 -1 3 2 12 8 20 20 25 24 49 8 42 -12 -4 -13 -1 -4 23 8 21 8 29 -2 36 -10 6 -10 8 2 8 13 0 13 1 0 10 -8 5 -10 10 -5 10 6 0 15 -4 21 -8z m654 -62 c-11 -15 -17 -30 -13 -34 3 -3 1 -6 -5 -6 -7 0 -12 -5 -12 -11 0 -5 5 -7 12 -3 7 4 8 3 4 -5 -4 -6 -12 -8 -18 -5 -6 4 -8 -2 -3 -17 5 -19 4 -21 -4 -9 -9 13 -11 13 -11 -3 0 -9 -3 -16 -7 -16 -20 3 -26 -2 -13 -11 12 -8 11 -10 -7 -10 -13 0 -22 -5 -20 -12 1 -7 -4 -12 -10 -11 -7 2 -13 -2 -13 -8 0 -5 -5 -7 -10 -4 -6 3 -13 -1 -16 -9 -3 -9 -10 -14 -14 -11 -5 3 -11 1 -14 -3 -3 -5 -16 -9 -28 -8 -13 1 -26 -6 -30 -14 -5 -12 -7 -12 -7 3 -1 10 -6 15 -11 12 -6 -4 -8 -10 -5 -15 3 -4 -6 -3 -20 3 -37 17 -31 23 26 26 84 4 175 65 205 138 8 18 24 42 36 53 17 16 18 19 6 15 -10 -4 -18 -3 -18 2 0 17 13 23 26 12 11 -9 10 -16 -6 -39z m-405 -199 c-4 -12 -2 -12 9 2 15 19 31 23 20 5 -6 -10 -4 -10 7 -2 22 16 57 15 63 -3 9 -21 0 -28 -17 -15 -8 7 -17 9 -21 5 -11 -12 -136 -11 -136 1 0 6 -5 4 -10 -4 -7 -11 -10 -11 -10 -2 0 7 -4 10 -10 7 -5 -3 -7 0 -4 8 3 10 22 14 60 14 45 -1 54 -3 49 -16z" transform="translate(0.000000,260.000000) scale(0.100000,-0.100000)"/><path d="M1216 1348 c3 -5 10 -6 15 -3 13 9 11 12 -6 12 -8 0 -12 -4 -9 -9z" transform="translate(0.000000,260.000000) scale(0.100000,-0.100000)"/><path d="M1186 512 c-3 -5 1 -9 9 -9 8 0 12 4 9 9 -3 4 -7 8 -9 8 -2 0 -6 -4 -9 -8z" transform="translate(0.000000,260.000000) scale(0.100000,-0.100000)"/></g></svg>